<svg width="200" height="32" viewBox="0 0 200 32" fill="none" xmlns="http://www.w3.org/2000/svg">
<path d="M199.515 15.2345L194.111 15.5671C194.018 15.1052 193.82 14.6895 193.515 14.3199C193.21 13.9412 192.808 13.6409 192.309 13.4192C191.82 13.1883 191.233 13.0728 190.549 13.0728C189.635 13.0728 188.863 13.2668 188.235 13.6548C187.607 14.0336 187.293 14.5417 187.293 15.1791C187.293 15.6872 187.496 16.1168 187.903 16.4678C188.309 16.8189 189.006 17.1007 189.995 17.3131L193.847 18.0891C195.917 18.5141 197.459 19.1977 198.476 20.14C199.492 21.0823 200 22.3203 200 23.8538C200 25.2488 199.589 26.4729 198.767 27.526C197.954 28.5792 196.836 29.4014 195.413 29.9926C194 30.5746 192.369 30.8656 190.522 30.8656C187.704 30.8656 185.459 30.279 183.787 29.1058C182.124 27.9233 181.149 26.3158 180.863 24.2834L186.669 23.9785C186.845 24.8377 187.27 25.4936 187.944 25.9463C188.618 26.3897 189.482 26.6114 190.535 26.6114C191.57 26.6114 192.402 26.4128 193.03 26.0156C193.667 25.6091 193.991 25.0871 194 24.4497C193.991 23.9139 193.764 23.475 193.321 23.1332C192.877 22.7822 192.194 22.5143 191.27 22.3295L187.584 21.5951C185.505 21.1793 183.958 20.4588 182.942 19.4333C181.935 18.4079 181.431 17.1007 181.431 15.5117C181.431 14.1444 181.801 12.9665 182.54 11.978C183.288 10.9895 184.337 10.2274 185.685 9.69157C187.043 9.15576 188.632 8.88785 190.452 8.88785C193.141 8.88785 195.256 9.456 196.799 10.5923C198.351 11.7286 199.256 13.276 199.515 15.2345Z" fill="black"/>
<path d="M171.695 30.8656C169.506 30.8656 167.621 30.4222 166.042 29.5353C164.471 28.6392 163.261 27.3736 162.411 25.7384C161.561 24.094 161.136 22.1494 161.136 19.9045C161.136 17.715 161.561 15.7934 162.411 14.1398C163.261 12.4861 164.457 11.1974 166 10.2736C167.552 9.34976 169.372 8.88785 171.46 8.88785C172.864 8.88785 174.171 9.11418 175.382 9.56686C176.601 10.0103 177.663 10.6801 178.569 11.5762C179.483 12.4723 180.195 13.5994 180.703 14.9574C181.211 16.3062 181.465 17.8859 181.465 19.6966V21.3179H163.492V17.6596H175.908C175.908 16.8096 175.723 16.0567 175.354 15.4008C174.984 14.7449 174.472 14.2322 173.816 13.8626C173.169 13.4839 172.416 13.2945 171.557 13.2945C170.661 13.2945 169.866 13.5024 169.173 13.9181C168.49 14.3246 167.954 14.8742 167.566 15.5671C167.178 16.2507 166.979 17.0129 166.97 17.8536V21.3318C166.97 22.3849 167.164 23.2949 167.552 24.0617C167.949 24.8284 168.508 25.4197 169.229 25.8354C169.949 26.2511 170.804 26.459 171.792 26.459C172.448 26.459 173.049 26.3666 173.594 26.1819C174.139 25.9971 174.606 25.7199 174.994 25.3504C175.382 24.9809 175.677 24.5282 175.88 23.9924L181.34 24.3527C181.063 25.6645 180.495 26.8101 179.636 27.7893C178.786 28.7593 177.686 29.5169 176.338 30.0619C174.998 30.5977 173.451 30.8656 171.695 30.8656Z" fill="black"/>
<path d="M154.875 30.4499V9.16499H160.779V30.4499H154.875ZM157.841 6.42123C156.963 6.42123 156.21 6.13022 155.582 5.54821C154.963 4.95697 154.654 4.25024 154.654 3.42804C154.654 2.61507 154.963 1.91758 155.582 1.33557C156.21 0.744324 156.963 0.4487 157.841 0.4487C158.718 0.4487 159.467 0.744324 160.086 1.33557C160.714 1.91758 161.028 2.61507 161.028 3.42804C161.028 4.25024 160.714 4.95697 160.086 5.54821C159.467 6.13022 158.718 6.42123 157.841 6.42123Z" fill="black"/>
<path d="M155.366 9.16501L147.925 30.4499H141.273L133.832 9.16501H140.068L144.488 24.3943H144.71L149.117 9.16501H155.366Z" fill="black"/>
<path d="M73.1746 30.4499V9.16499H78.8007V12.9203H79.0501C79.4935 11.6732 80.2326 10.6893 81.2673 9.96872C82.3019 9.24814 83.5399 8.88785 84.981 8.88785C86.4407 8.88785 87.6832 9.25276 88.7087 9.98258C89.7341 10.7032 90.4178 11.6824 90.7596 12.9203H90.9813C91.4155 11.7009 92.2007 10.7263 93.337 9.99644C94.4826 9.25738 95.836 8.88785 97.3973 8.88785C99.3835 8.88785 100.996 9.52067 102.233 10.7863C103.481 12.0427 104.104 13.8257 104.104 16.1353V30.4499H98.2148V17.2993C98.2148 16.1168 97.9007 15.2299 97.2725 14.6387C96.6443 14.0474 95.8591 13.7518 94.9168 13.7518C93.8451 13.7518 93.0091 14.0936 92.4086 14.7772C91.8081 15.4516 91.5079 16.3431 91.5079 17.4517V30.4499H85.7848V17.1746C85.7848 16.1306 85.4845 15.2992 84.884 14.6802C84.2928 14.0613 83.5122 13.7518 82.5421 13.7518C81.8862 13.7518 81.295 13.9181 80.7684 14.2507C80.2511 14.574 79.84 15.0313 79.5351 15.6225C79.2302 16.2045 79.0778 16.8882 79.0778 17.6734V30.4499H73.1746Z" fill="black"/>
<path d="M71.9578 2.07001V30.4499H66.0546V2.07001H71.9578Z" fill="black"/>
<path d="M53.0001 30.8518C51.642 30.8518 50.4318 30.6162 49.3694 30.1451C48.307 29.6647 47.4663 28.9579 46.8474 28.0249C46.2377 27.0826 45.9328 25.9093 45.9328 24.5051C45.9328 23.3226 46.1499 22.3295 46.5841 21.5258C47.0183 20.722 47.6095 20.0754 48.3578 19.5857C49.1061 19.0961 49.9561 18.7266 50.9076 18.4772C51.8684 18.2277 52.8753 18.0522 53.9285 17.9506C55.1664 17.8212 56.1642 17.7011 56.9217 17.5903C57.6792 17.4702 58.2289 17.2947 58.5707 17.0637C58.9125 16.8327 59.0834 16.4909 59.0834 16.0383V15.9551C59.0834 15.0775 58.8063 14.3985 58.252 13.9181C57.707 13.4377 56.9309 13.1975 55.924 13.1975C54.8616 13.1975 54.0163 13.4331 53.3881 13.9042C52.7599 14.3661 52.3441 14.9481 52.1409 15.6502L46.6811 15.2068C46.9582 13.9135 47.5033 12.7956 48.3163 11.8533C49.1292 10.9018 50.1778 10.172 51.4619 9.66386C52.7552 9.14652 54.2518 8.88785 55.9517 8.88785C57.1342 8.88785 58.2659 9.02642 59.3467 9.30357C60.4369 9.58072 61.4023 10.0103 62.2429 10.5923C63.0929 11.1743 63.7626 11.9226 64.2522 12.8372C64.7419 13.7425 64.9867 14.828 64.9867 16.0937V30.4499H59.3883V27.4983H59.222C58.8802 28.1635 58.4229 28.7501 57.8501 29.2582C57.2774 29.7571 56.5891 30.1497 55.7854 30.4361C54.9817 30.7132 54.0532 30.8518 53.0001 30.8518ZM54.6907 26.7777C55.5591 26.7777 56.3258 26.6068 56.991 26.265C57.6561 25.9139 58.1781 25.4428 58.5569 24.8515C58.9356 24.2603 59.125 23.5905 59.125 22.8422V20.5835C58.9403 20.7036 58.6862 20.8144 58.3629 20.916C58.0488 21.0084 57.6931 21.0962 57.2958 21.1793C56.8986 21.2532 56.5014 21.3225 56.1041 21.3872C55.7069 21.4426 55.3466 21.4934 55.0232 21.5396C54.3304 21.6413 53.7253 21.8029 53.2079 22.0246C52.6906 22.2464 52.2887 22.5466 52.0023 22.9254C51.7159 23.2949 51.5728 23.7568 51.5728 24.3111C51.5728 25.1148 51.8638 25.7292 52.4458 26.1541C53.037 26.5699 53.7853 26.7777 54.6907 26.7777Z" fill="black"/>
<path d="M37.1568 30.8656C34.9766 30.8656 33.1012 30.4037 31.5307 29.4799C29.9694 28.5468 28.7684 27.2535 27.9278 25.5998C27.0963 23.9462 26.6806 22.0431 26.6806 19.8906C26.6806 17.7104 27.1009 15.7981 27.9416 14.1537C28.7915 12.5 29.9971 11.2113 31.5584 10.2874C33.1197 9.35438 34.9766 8.88785 37.1291 8.88785C38.986 8.88785 40.6119 9.22504 42.0069 9.89943C43.4018 10.5738 44.5058 11.5207 45.3188 12.7402C46.1317 13.9596 46.5798 15.3916 46.6629 17.036H41.0923C40.9352 15.9736 40.5195 15.119 39.8451 14.4724C39.18 13.8165 38.3069 13.4885 37.2261 13.4885C36.3115 13.4885 35.5124 13.7379 34.8287 14.2368C34.1543 14.7264 33.6278 15.4424 33.249 16.3847C32.8702 17.327 32.6808 18.4679 32.6808 19.8075C32.6808 21.1655 32.8656 22.3203 33.2351 23.2718C33.6139 24.2233 34.1451 24.9485 34.8287 25.4474C35.5124 25.9463 36.3115 26.1957 37.2261 26.1957C37.9005 26.1957 38.5056 26.0571 39.0414 25.78C39.5864 25.5028 40.0345 25.101 40.3855 24.5744C40.7458 24.0386 40.9814 23.3965 41.0923 22.6482H46.6629C46.5706 24.2742 46.1271 25.7061 45.3326 26.944C44.5474 28.1727 43.4619 29.1335 42.0761 29.8263C40.6904 30.5192 39.0506 30.8656 37.1568 30.8656Z" fill="black"/>
<path d="M16.7371 30.8656C14.5846 30.8656 12.7231 30.4084 11.1526 29.4938C9.59131 28.5699 8.38572 27.2858 7.5358 25.6414C6.68588 23.9878 6.26093 22.0708 6.26093 19.8906C6.26093 17.6919 6.68588 15.7703 7.5358 14.1259C8.38572 12.4723 9.59131 11.1882 11.1526 10.2736C12.7231 9.34976 14.5846 8.88785 16.7371 8.88785C18.8896 8.88785 20.7465 9.34976 22.3078 10.2736C23.8783 11.1882 25.0885 12.4723 25.9384 14.1259C26.7883 15.7703 27.2133 17.6919 27.2133 19.8906C27.2133 22.0708 26.7883 23.9878 25.9384 25.6414C25.0885 27.2858 23.8783 28.5699 22.3078 29.4938C20.7465 30.4084 18.8896 30.8656 16.7371 30.8656ZM16.7648 26.2927C17.7441 26.2927 18.5617 26.0156 19.2176 25.4613C19.8735 24.8977 20.3677 24.131 20.7003 23.1609C21.0421 22.1909 21.213 21.087 21.213 19.849C21.213 18.6111 21.0421 17.5071 20.7003 16.5371C20.3677 15.5671 19.8735 14.8003 19.2176 14.2368C18.5617 13.6733 17.7441 13.3915 16.7648 13.3915C15.7763 13.3915 14.9449 13.6733 14.2705 14.2368C13.6053 14.8003 13.1019 15.5671 12.76 16.5371C12.4275 17.5071 12.2612 18.6111 12.2612 19.849C12.2612 21.087 12.4275 22.1909 12.76 23.1609C13.1019 24.131 13.6053 24.8977 14.2705 25.4613C14.9449 26.0156 15.7763 26.2927 16.7648 26.2927Z" fill="black"/>
<path d="M5.90324 2.07001V30.4499H0V2.07001H5.90324Z" fill="black"/>
<path fill-rule="evenodd" clip-rule="evenodd" d="M107.373 11.4475C107.083 11.6636 107.031 11.8588 107.031 11.9598L107.031 13.5123H111.23V11.0584H108.693C108.125 11.0584 107.663 11.2314 107.373 11.4475ZM108.693 8.42502C107.615 8.42502 106.588 8.74856 105.8 9.33524C105.012 9.92196 104.397 10.8357 104.397 11.9598L104.397 25.0034L104.397 27.8728C104.397 28.9968 105.012 29.9106 105.8 30.4973C106.588 31.084 107.615 31.4075 108.693 31.4075L130.066 31.4075C131.144 31.4075 132.171 31.084 132.959 30.4973C133.747 29.9106 134.362 28.9968 134.362 27.8728V11.9598C134.362 10.8357 133.747 9.92196 132.959 9.33524C132.171 8.74856 131.144 8.42502 130.066 8.42502L108.693 8.42502ZM113.864 11.0584V13.5123L118.063 13.5123V11.0584L113.864 11.0584ZM120.696 11.0584V13.5123H124.896V11.0584L120.696 11.0584ZM127.529 11.0584V13.5123L131.729 13.5123V11.9598C131.729 11.8588 131.677 11.6636 131.387 11.4475C131.096 11.2314 130.634 11.0584 130.066 11.0584H127.529ZM131.729 16.1457H126.213L120.696 16.1457V23.6868H131.729V16.1457ZM131.729 26.3202H127.529V28.7741H130.066C130.634 28.7741 131.096 28.6011 131.387 28.385C131.677 28.169 131.729 27.9737 131.729 27.8728V26.3202ZM124.896 28.7741V26.3202H120.696V28.7741H124.896ZM118.063 28.7741V26.3202H113.863L113.863 28.7741H118.063ZM111.23 28.7741L111.23 26.3202H107.031V27.8728C107.031 27.9737 107.083 28.169 107.373 28.385C107.663 28.6011 108.125 28.7741 108.693 28.7741H111.23ZM107.031 23.6868H118.063L118.063 16.1457H107.031L107.031 23.6868Z" fill="#D6E900"/>
</svg>
