<svg width="200" height="32" viewBox="0 0 200 32" fill="none" xmlns="http://www.w3.org/2000/svg">
<path d="M199.515 14.7858L194.111 15.1184C194.018 14.6565 193.82 14.2408 193.515 13.8712C193.21 13.4925 192.808 13.1922 192.309 12.9705C191.82 12.7396 191.233 12.6241 190.549 12.6241C189.635 12.6241 188.863 12.8181 188.235 13.2061C187.607 13.5849 187.293 14.093 187.293 14.7304C187.293 15.2385 187.496 15.6681 187.903 16.0191C188.309 16.3702 189.006 16.652 189.995 16.8644L193.847 17.6404C195.917 18.0654 197.459 18.749 198.476 19.6913C199.492 20.6336 200 21.8716 200 23.4051C200 24.8001 199.589 26.0242 198.767 27.0773C197.954 28.1305 196.836 28.9527 195.413 29.5439C194 30.1259 192.369 30.4169 190.522 30.4169C187.704 30.4169 185.459 29.8303 183.787 28.6571C182.124 27.4746 181.149 25.8671 180.863 23.8347L186.669 23.5298C186.845 24.389 187.27 25.0449 187.944 25.4976C188.618 25.941 189.482 26.1627 190.535 26.1627C191.57 26.1627 192.402 25.9641 193.03 25.5669C193.667 25.1604 193.991 24.6384 194 24.001C193.991 23.4652 193.764 23.0263 193.321 22.6845C192.877 22.3335 192.194 22.0656 191.27 21.8808L187.584 21.1464C185.505 20.7306 183.958 20.0101 182.942 18.9846C181.935 17.9592 181.431 16.652 181.431 15.063C181.431 13.6957 181.801 12.5178 182.54 11.5293C183.288 10.5408 184.337 9.77869 185.685 9.24287C187.043 8.70706 188.632 8.43915 190.452 8.43915C193.141 8.43915 195.256 9.0073 196.799 10.1436C198.351 11.2799 199.256 12.8273 199.515 14.7858Z" fill="white"/>
<path d="M171.695 30.4169C169.506 30.4169 167.621 29.9735 166.042 29.0866C164.471 28.1905 163.261 26.9249 162.411 25.2897C161.561 23.6453 161.136 21.7007 161.136 19.4558C161.136 17.2663 161.561 15.3447 162.411 13.6911C163.261 12.0374 164.457 10.7487 166 9.82488C167.552 8.90106 169.372 8.43915 171.46 8.43915C172.864 8.43915 174.171 8.66548 175.382 9.11816C176.601 9.56159 177.663 10.2314 178.569 11.1275C179.483 12.0236 180.195 13.1507 180.703 14.5087C181.211 15.8575 181.465 17.4372 181.465 19.2479V20.8692H163.492V17.2109H175.908C175.908 16.3609 175.723 15.608 175.354 14.9521C174.984 14.2962 174.472 13.7835 173.816 13.4139C173.169 13.0352 172.416 12.8458 171.557 12.8458C170.661 12.8458 169.866 13.0537 169.173 13.4694C168.49 13.8759 167.954 14.4255 167.566 15.1184C167.178 15.802 166.979 16.5642 166.97 17.4049V20.8831C166.97 21.9362 167.164 22.8462 167.552 23.613C167.949 24.3797 168.508 24.971 169.229 25.3867C169.949 25.8024 170.804 26.0103 171.792 26.0103C172.448 26.0103 173.049 25.9179 173.594 25.7332C174.139 25.5484 174.606 25.2712 174.994 24.9017C175.382 24.5322 175.677 24.0795 175.88 23.5437L181.34 23.904C181.063 25.2158 180.495 26.3614 179.636 27.3406C178.786 28.3106 177.686 29.0682 176.338 29.6132C174.998 30.149 173.451 30.4169 171.695 30.4169Z" fill="white"/>
<path d="M154.875 30.0012V8.71629H160.779V30.0012H154.875ZM157.841 5.97253C156.963 5.97253 156.21 5.68152 155.582 5.09951C154.963 4.50827 154.654 3.80154 154.654 2.97934C154.654 2.16637 154.963 1.46888 155.582 0.886874C156.21 0.295625 156.963 0 157.841 0C158.718 0 159.467 0.295625 160.086 0.886874C160.714 1.46888 161.028 2.16637 161.028 2.97934C161.028 3.80154 160.714 4.50827 160.086 5.09951C159.467 5.68152 158.718 5.97253 157.841 5.97253Z" fill="white"/>
<path d="M155.366 8.71629L147.925 30.0012H141.273L133.832 8.71629H140.068L144.488 23.9455H144.71L149.117 8.71629H155.366Z" fill="white"/>
<path d="M73.1746 30.0012V8.71629H78.8007V12.4716H79.0501C79.4935 11.2245 80.2326 10.2406 81.2673 9.52002C82.3019 8.79944 83.5399 8.43915 84.981 8.43915C86.4407 8.43915 87.6832 8.80406 88.7087 9.53388C89.7341 10.2545 90.4178 11.2337 90.7596 12.4716H90.9813C91.4155 11.2522 92.2007 10.2776 93.337 9.54774C94.4826 8.80868 95.836 8.43915 97.3973 8.43915C99.3835 8.43915 100.996 9.07197 102.233 10.3376C103.481 11.594 104.104 13.377 104.104 15.6866V30.0012H98.2148V16.8506C98.2148 15.6681 97.9007 14.7812 97.2725 14.19C96.6443 13.5987 95.8591 13.3031 94.9168 13.3031C93.8451 13.3031 93.0091 13.6449 92.4086 14.3285C91.8081 15.0029 91.5079 15.8944 91.5079 17.003V30.0012H85.7848V16.7259C85.7848 15.6819 85.4845 14.8505 84.884 14.2315C84.2928 13.6126 83.5122 13.3031 82.5421 13.3031C81.8862 13.3031 81.295 13.4694 80.7684 13.802C80.2511 14.1253 79.84 14.5826 79.5351 15.1738C79.2302 15.7558 79.0778 16.4395 79.0778 17.2247V30.0012H73.1746Z" fill="white"/>
<path d="M71.9577 1.62131V30.0012H66.0545V1.62131H71.9577Z" fill="white"/>
<path d="M53 30.4031C51.642 30.4031 50.4318 30.1675 49.3694 29.6964C48.307 29.216 47.4663 28.5092 46.8473 27.5762C46.2376 26.6339 45.9327 25.4606 45.9327 24.0564C45.9327 22.8739 46.1498 21.8808 46.584 21.0771C47.0182 20.2733 47.6095 19.6267 48.3578 19.137C49.1061 18.6474 49.956 18.2779 50.9075 18.0285C51.8683 17.779 52.8753 17.6035 53.9284 17.5019C55.1664 17.3725 56.1641 17.2524 56.9216 17.1416C57.6792 17.0215 58.2288 16.846 58.5707 16.615C58.9125 16.384 59.0834 16.0422 59.0834 15.5896V15.5064C59.0834 14.6288 58.8062 13.9498 58.2519 13.4694C57.7069 12.989 56.9309 12.7488 55.9239 12.7488C54.8615 12.7488 54.0162 12.9844 53.388 13.4555C52.7598 13.9174 52.3441 14.4994 52.1408 15.2015L46.681 14.7581C46.9582 13.4648 47.5032 12.3469 48.3162 11.4046C49.1292 10.4531 50.1777 9.72326 51.4618 9.21516C52.7552 8.69782 54.2518 8.43915 55.9516 8.43915C57.1341 8.43915 58.2658 8.57772 59.3467 8.85487C60.4368 9.13202 61.4022 9.56159 62.2429 10.1436C63.0928 10.7256 63.7626 11.4739 64.2522 12.3885C64.7418 13.2938 64.9866 14.3793 64.9866 15.645V30.0012H59.3882V27.0496H59.222C58.8801 27.7148 58.4229 28.3014 57.8501 28.8095C57.2773 29.3084 56.5891 29.701 55.7853 29.9874C54.9816 30.2645 54.0532 30.4031 53 30.4031ZM54.6906 26.329C55.559 26.329 56.3258 26.1581 56.9909 25.8163C57.6561 25.4652 58.178 24.9941 58.5568 24.4028C58.9356 23.8116 59.125 23.1418 59.125 22.3935V20.1348C58.9402 20.2549 58.6861 20.3657 58.3628 20.4673C58.0487 20.5597 57.693 20.6475 57.2958 20.7306C56.8985 20.8045 56.5013 20.8738 56.1041 20.9385C55.7068 20.9939 55.3465 21.0447 55.0232 21.0909C54.3303 21.1926 53.7252 21.3542 53.2079 21.5759C52.6905 21.7977 52.2887 22.0979 52.0023 22.4767C51.7159 22.8462 51.5727 23.3081 51.5727 23.8624C51.5727 24.6661 51.8637 25.2805 52.4457 25.7054C53.037 26.1212 53.7853 26.329 54.6906 26.329Z" fill="white"/>
<path d="M37.1568 30.4169C34.9766 30.4169 33.1012 29.955 31.5307 29.0312C29.9694 28.0981 28.7684 26.8048 27.9278 25.1511C27.0963 23.4975 26.6806 21.5944 26.6806 19.4419C26.6806 17.2617 27.1009 15.3494 27.9416 13.7049C28.7915 12.0513 29.9971 10.7626 31.5584 9.83874C33.1197 8.90568 34.9766 8.43915 37.1291 8.43915C38.986 8.43915 40.6119 8.77634 42.0069 9.45073C43.4018 10.1251 44.5058 11.072 45.3188 12.2915C46.1317 13.5109 46.5798 14.9429 46.6629 16.5873H41.0923C40.9352 15.5249 40.5195 14.6703 39.8451 14.0237C39.18 13.3678 38.3069 13.0398 37.2261 13.0398C36.3115 13.0398 35.5124 13.2892 34.8287 13.7881C34.1543 14.2777 33.6278 14.9937 33.249 15.936C32.8702 16.8783 32.6808 18.0192 32.6808 19.3588C32.6808 20.7168 32.8656 21.8716 33.2351 22.8231C33.6139 23.7746 34.1451 24.4998 34.8287 24.9987C35.5124 25.4976 36.3115 25.747 37.2261 25.747C37.9005 25.747 38.5056 25.6084 39.0414 25.3313C39.5864 25.0541 40.0345 24.6523 40.3855 24.1257C40.7458 23.5899 40.9814 22.9478 41.0923 22.1995H46.6629C46.5706 23.8255 46.1271 25.2574 45.3326 26.4953C44.5474 27.724 43.4619 28.6848 42.0761 29.3776C40.6904 30.0705 39.0506 30.4169 37.1568 30.4169Z" fill="white"/>
<path d="M16.7371 30.4169C14.5846 30.4169 12.7231 29.9597 11.1526 29.0451C9.59131 28.1212 8.38572 26.8371 7.5358 25.1927C6.68588 23.5391 6.26093 21.6221 6.26093 19.4419C6.26093 17.2432 6.68588 15.3216 7.5358 13.6772C8.38572 12.0236 9.59131 10.7395 11.1526 9.82488C12.7231 8.90106 14.5846 8.43915 16.7371 8.43915C18.8896 8.43915 20.7465 8.90106 22.3078 9.82488C23.8783 10.7395 25.0885 12.0236 25.9384 13.6772C26.7883 15.3216 27.2133 17.2432 27.2133 19.4419C27.2133 21.6221 26.7883 23.5391 25.9384 25.1927C25.0885 26.8371 23.8783 28.1212 22.3078 29.0451C20.7465 29.9597 18.8896 30.4169 16.7371 30.4169ZM16.7648 25.844C17.7441 25.844 18.5617 25.5669 19.2176 25.0126C19.8735 24.449 20.3677 23.6823 20.7003 22.7122C21.0421 21.7422 21.213 20.6383 21.213 19.4003C21.213 18.1624 21.0421 17.0584 20.7003 16.0884C20.3677 15.1184 19.8735 14.3516 19.2176 13.7881C18.5617 13.2246 17.7441 12.9428 16.7648 12.9428C15.7763 12.9428 14.9449 13.2246 14.2705 13.7881C13.6053 14.3516 13.1019 15.1184 12.76 16.0884C12.4275 17.0584 12.2612 18.1624 12.2612 19.4003C12.2612 20.6383 12.4275 21.7422 12.76 22.7122C13.1019 23.6823 13.6053 24.449 14.2705 25.0126C14.9449 25.5669 15.7763 25.844 16.7648 25.844Z" fill="white"/>
<path d="M5.90324 1.62131V30.0012H0V1.62131H5.90324Z" fill="white"/>
<g clip-path="url(#clip0_1_51)">
<path fill-rule="evenodd" clip-rule="evenodd" d="M131.387 10.9988C131.096 10.7827 130.634 10.6097 130.066 10.6097L108.693 10.6097C108.125 10.6097 107.663 10.7827 107.373 10.9988C107.083 11.2149 107.031 11.4101 107.031 11.5111L107.031 27.4241C107.031 27.525 107.083 27.7203 107.373 27.9363C107.663 28.1524 108.125 28.3254 108.693 28.3254L130.066 28.3254C130.634 28.3254 131.096 28.1524 131.387 27.9363C131.677 27.7203 131.729 27.525 131.729 27.4241V11.5111C131.729 11.4101 131.677 11.2149 131.387 10.9988ZM132.959 8.88654C133.747 9.47326 134.362 10.387 134.362 11.5111V27.4241C134.362 28.5481 133.747 29.4619 132.959 30.0486C132.171 30.6353 131.144 30.9588 130.066 30.9588L108.693 30.9588C107.615 30.9588 106.588 30.6353 105.8 30.0486C105.012 29.4619 104.397 28.5481 104.397 27.4241L104.397 11.5111C104.397 10.387 105.012 9.47326 105.8 8.88654C106.588 8.29986 107.615 7.97632 108.693 7.97632L130.066 7.97632C131.144 7.97632 132.171 8.29986 132.959 8.88654Z" fill="#D6E900"/>
<path fill-rule="evenodd" clip-rule="evenodd" d="M134.362 14.3803C134.362 15.1075 133.773 15.697 133.045 15.697L105.714 15.697C104.987 15.697 104.397 15.1075 104.397 14.3803C104.397 13.6531 104.987 13.0636 105.714 13.0636L133.045 13.0636C133.773 13.0636 134.362 13.6531 134.362 14.3803Z" fill="#D6E900"/>
<path fill-rule="evenodd" clip-rule="evenodd" d="M134.362 24.5548C134.362 25.282 133.773 25.8715 133.045 25.8715H105.714C104.987 25.8715 104.397 25.282 104.397 24.5548C104.397 23.8276 104.987 23.2381 105.714 23.2381L133.045 23.2381C133.773 23.2381 134.362 23.8276 134.362 24.5548Z" fill="#D6E900"/>
<path fill-rule="evenodd" clip-rule="evenodd" d="M119.38 7.97632C120.107 7.97632 120.696 8.56583 120.696 9.29302L120.696 29.6421C120.696 30.3693 120.107 30.9588 119.38 30.9588C118.652 30.9588 118.063 30.3693 118.063 29.6421L118.063 9.29302C118.063 8.56583 118.652 7.97632 119.38 7.97632Z" fill="#D6E900"/>
<path fill-rule="evenodd" clip-rule="evenodd" d="M126.213 7.97632C126.94 7.97632 127.529 8.56583 127.529 9.29302V14.3803C127.529 15.1075 126.94 15.697 126.213 15.697C125.485 15.697 124.896 15.1075 124.896 14.3803V9.29302C124.896 8.56583 125.485 7.97632 126.213 7.97632Z" fill="#D6E900"/>
<path fill-rule="evenodd" clip-rule="evenodd" d="M112.547 7.97632C113.274 7.97632 113.863 8.56583 113.863 9.29302L113.863 14.3803C113.863 15.1075 113.274 15.697 112.547 15.697C111.82 15.697 111.23 15.1075 111.23 14.3803V9.29302C111.23 8.56583 111.82 7.97632 112.547 7.97632Z" fill="#D6E900"/>
<path fill-rule="evenodd" clip-rule="evenodd" d="M112.547 23.2381C113.274 23.2381 113.863 23.8276 113.863 24.5548V29.6421C113.863 30.3693 113.274 30.9588 112.547 30.9588C111.82 30.9588 111.23 30.3693 111.23 29.6421L111.23 24.5548C111.23 23.8276 111.82 23.2381 112.547 23.2381Z" fill="#D6E900"/>
<path fill-rule="evenodd" clip-rule="evenodd" d="M126.213 23.2381C126.94 23.2381 127.529 23.8276 127.529 24.5548V29.6421C127.529 30.3693 126.94 30.9588 126.213 30.9588C125.485 30.9588 124.896 30.3693 124.896 29.6421V24.5548C124.896 23.8276 125.485 23.2381 126.213 23.2381Z" fill="#D6E900"/>
</g>
<defs>
<clipPath id="clip0_1_51">
<rect width="24.4189" height="32.7979" fill="white" transform="translate(135.779 7.25812) rotate(90)"/>
</clipPath>
</defs>
</svg>
